 Spivs 2004 DVDRip Xvid fasamoo LKRG


RIPPER                           : fasamoo
Format                           : AVI
Format/Info                      : Audio Video Interleave
File size                        : 700 MiB
Duration                         : 1h 35mn
Overall bit rate                 : 1 026 Kbps
Writing application              : VirtualDubMod 1.5.4.1 (build 2178/release)
Writing library                  : VirtualDubMod build 2178/release
Language                         : English
Subtitles                        : Indonesian,Chinese,Thai(*.idx,*.sub)
Genre                            : Drama | Comedy   

    
Video
ID                               : 0
Format                           : MPEG-4 Visual
Format profile                   : Advanced Simple@L5
Format settings, BVOP            : Yes
Format settings, QPel            : No
Format settings, GMC             : No warppoints
Format settings, Matrix          : Custom
Codec ID                         : XVID
Codec ID/Hint                    : XviD
Duration                         : 1h 35mn
Bit rate                         : 900 Kbps
Width                            : 688 pixels
Height                           : 304 pixels
Display aspect ratio             : 2.25:1
Frame rate                       : 23.976 fps
Color space                      : YUV
Chroma subsampling               : 4:2:0
Bit depth                        : 8 bits
Scan type                        : Progressive
Bits/(Pixel*Frame)               : 0.179
Stream size                      : 614 MiB (88%)
Writing library                  : XviD 1.2.1 (UTC 2008-12-04)

Audio
ID                               : 1
Format                           : MPEG Audio
Format version                   : Version 1
Format profile                   : Layer 3
Mode                             : Joint stereo
Mode extension                   : MS Stereo
Codec ID                         : 55
Codec ID/Hint                    : MP3
Duration                         : 1h 35mn
Bit rate mode                    : Variable
Bit rate                         : 113 Kbps
Nominal bit rate                 : 128 Kbps
Channel(s)                       : 2 channels
Sampling rate                    : 48.0 KHz
Stream size                      : 77.4 MiB (11%)
Alignment                        : Aligned on interleaves
Interleave, duration             : 24 ms (0.58 video frame)
Interleave, preload duration     : 162 ms
Writing library                  : LAME3.98r
Encoding settings                : -m j -V 4 -q 2 -lowpass 17 --abr 128

 PLOT

Jack, Steve and Goat are East-End Spivs. They spend their time wheeling and dealing wherever and whenever they can. It's not until Jack and the others get involved with a guy called Villa, and they are landed with a big payday they have been waiting for, when they realise what a mess they are into. At the back of the lorry they have smuggled goods in, they find illigal immegrants. Most of them escape but they are left with 2 kids; a boy and a girl, and have to decide what to do with them...Are they going to look after them and feed them, clothe them, love them, etc. or are they going to leave them on the streets of East-End London.



                                 IMBD
                     
                 http://www.imdb.com/title/tt0352864/
 
http://leetleech.org/images/95571858950085436470.png 
http://leetleech.org/images/56752041401263204820.png 
http://leetleech.org/images/50235137874150181662.png 
http://leetleech.org/images/41772186280443934949.png 
http://leetleech.org/images/86169098260215052523.png

